# File created by Blade
# Date/Time:  Tue Jan 27 18:02:00 2015
#---------------------------------------------------------
:version 1.10
:name HOM
:units
  mass 1.0
  length 1.000000
  angle deg
:documentation
     Acclaim Skeleton File
:root
   axis xyz
   order TX TY TZ RX RY RZ
   position 0.000000 0.000000 0.000000
   orientation 0 0 0
:bonedata
   begin
      id 1
      name Spine_dum
      direction 0.000000 1.000000 0.000000
      length 5.195262
      axis 0.0 0.0 0.0 xyz
   end
   begin
      id 2
      name LeftUpLeg_dum
      direction 1.000000 0.000000 0.000000
      length 3.351363
      axis 0.0 0.0 0.0 xyz
   end
   begin
      id 3
      name RightUpLeg_dum
      direction -1.000000 0.000000 0.000000
      length 3.351363
      axis 0.0 0.0 0.0 xyz
   end
   begin
      id 4
      name Spine
      direction 0.000000 1.000000 0.000000
      length 0.000000
      axis 0.0 0.0 0.0 xyz
      dof rx ry rz
   end
   begin
      id 5
      name Spine_dum1
      direction 0.000000 1.000000 0.000000
      length 15.653875
      axis 0.0 0.0 0.0 xyz
   end
   begin
      id 6
      name Spine_dum2
      direction 0.000000 1.000000 0.000000
      length 10.329768
      axis 0.0 0.0 0.0 xyz
   end
   begin
      id 7
      name Spine_dum3
      direction 0.000000 1.000000 0.000000
      length 10.329768
      axis 0.0 0.0 0.0 xyz
   end
   begin
      id 8
      name Head
      direction 0.000000 1.000000 0.000000
      length 4.527550
      axis 0.0 0.0 0.0 xyz
      dof rx ry rz
   end
   begin
      id 9
      name LeftShoulder
      direction 1.000000 0.000000 0.000000
      length 6.996006
      axis 0.0 0.0 -90.0 xyz
      dof rx ry rz
   end
   begin
      id 10
      name LeftArm
      direction 1.000000 0.000000 0.000000
      length 10.209302
      axis 0.0 0.0 -90.0 xyz
      dof rx ry rz
   end
   begin
      id 11
      name LeftForeArm
      direction 1.000000 0.000000 0.000000
      length 8.563163
      axis 0.0 0.0 -90.0 xyz
      dof ry rz rx
   end
   begin
      id 12
      name LeftHand
      direction 0.000000 0.000000 0.000000
      length 0.000000
      axis 0.0 0.0 -90.0 xyz
      dof rx ry rz
   end
   begin
      id 13
      name LeftHand_dum1
      direction 0.000000 0.000000 0.000000
      length 0.000000
      axis 0.0 0.0 -90.0 xyz
   end
   begin
      id 14
      name LeftHand_dum2
      direction 1.000000 0.000000 0.000000
      length 3.937000
      axis 0.0 0.0 -90.0 xyz
   end
   begin
      id 15
      name LeftHandThumb1
      direction 0.000000 0.000000 1.000000
      length 3.937000
      axis 0.0 0.0 -90.0 xyz
      dof rx rz ry
   end
   begin
      id 16
      name RightShoulder
      direction -1.000000 0.000000 0.000000
      length 6.996006
      axis 0.0 0.0 90.0 xyz
      dof rx ry rz
   end
   begin
      id 17
      name RightArm
      direction -1.000000 0.000000 0.000000
      length 10.209302
      axis 0.0 0.0 90.0 xyz
      dof rx ry rz
   end
   begin
      id 18
      name RightForeArm
      direction -1.000000 0.000000 0.000000
      length 8.563163
      axis 0.0 0.0 90.0 xyz
      dof ry rz rx
   end
   begin
      id 19
      name RightHand
      direction 0.000000 0.000000 0.000000
      length 0.000000
      axis 0.0 0.0 90.0 xyz
      dof rx ry rz
   end
   begin
      id 20
      name RightHand_dum1
      direction 0.000000 0.000000 0.000000
      length 0.000000
      axis 0.0 0.0 90.0 xyz
   end
   begin
      id 21
      name RightHand_dum2
      direction -1.000000 0.000000 0.000000
      length 3.937000
      axis 0.0 0.0 90.0 xyz
   end
   begin
      id 22
      name RightHandThumb1
      direction 0.000000 0.000000 1.000000
      length 3.937000
      axis 0.0 0.0 90.0 xyz
      dof rx rz ry
   end
   begin
      id 23
      name LeftUpLeg
      direction 0.000000 -1.000000 0.000000
      length 16.346831
      axis 0.0 0.0 0.0 xyz
      dof rx ry rz
   end
   begin
      id 24
      name LeftLeg
      direction 0.000000 -1.000000 0.000000
      length 13.959795
      axis 0.0 0.0 0.0 xyz
      dof rx ry rz
   end
   begin
      id 25
      name LeftFoot
      direction 0.000000 -0.258819 0.965926
      length 5.165550
      axis 15.0 0.0 0.0 xyz
      dof rx ry rz
   end
   begin
      id 26
      name LeftToeBase
      direction 0.000000 0.000000 1.000000
      length 2.952750
      axis 0.0 0.0 0.0 xyz
      dof rx ry rz
   end
   begin
      id 27
      name RightUpLeg
      direction 0.000000 -1.000000 0.000000
      length 16.346831
      axis 0.0 0.0 0.0 xyz
      dof rx ry rz
   end
   begin
      id 28
      name RightLeg
      direction 0.000000 -1.000000 0.000000
      length 13.959795
      axis 0.0 0.0 0.0 xyz
      dof rx ry rz
   end
   begin
      id 29
      name RightFoot
      direction 0.000000 -0.258819 0.965926
      length 5.165550
      axis 15.0 0.0 0.0 xyz
      dof rx ry rz
   end
   begin
      id 30
      name RightToeBase
      direction 0.000000 0.000000 1.000000
      length 2.952750
      axis 0.0 0.0 0.0 xyz
      dof rx ry rz
   end
:hierarchy
   begin
      root Spine_dum LeftUpLeg_dum RightUpLeg_dum
      Spine_dum Spine
      LeftUpLeg_dum LeftUpLeg
      RightUpLeg_dum RightUpLeg
      Spine Spine_dum1 Spine_dum2 Spine_dum3
      Spine_dum1 Head
      Spine_dum2 LeftShoulder
      Spine_dum3 RightShoulder
      LeftShoulder LeftArm
      LeftArm LeftForeArm
      LeftForeArm LeftHand
      LeftHand LeftHand_dum1 LeftHand_dum2
      LeftHand_dum1 LeftHandThumb1
      RightShoulder RightArm
      RightArm RightForeArm
      RightForeArm RightHand
      RightHand RightHand_dum1 RightHand_dum2
      RightHand_dum1 RightHandThumb1
      LeftUpLeg LeftLeg
      LeftLeg LeftFoot
      LeftFoot LeftToeBase
      RightUpLeg RightLeg
      RightLeg RightFoot
      RightFoot RightToeBase
   end

# File created by Blade
# Date/Time:  Tue Jan 27 18:01:49 2015
# Frame Rate: 120.000 fps
#------------------------------------------------------
:FULLY-SPECIFIED
:DEGREES
1177
root -1.449725 31.934982 -5.984325 7.946357 25.319575 5.332711
Spine -7.566655 -5.280672 -4.171113
Head 3.593774 -20.900063 -7.124361
LeftShoulder -12.374706 14.993406 6.617116
LeftArm 24.576731 41.100817 -72.145735
LeftForeArm -1.576711 0.000000 13.295946
LeftHand -11.521583 -0.000000 -6.690339
LeftHandThumb1 -26.253704 0.000000 33.147579
RightShoulder -12.702865 29.699935 -49.911594
RightArm 59.683081 60.077859 67.578539
RightForeArm 25.531361 -0.000000 105.636780
RightHand -3.135130 -0.000000 9.698186
RightHandThumb1 -24.326973 -0.000000 -32.862282
LeftUpLeg -3.490570 -11.232510 -0.449632
LeftLeg 0.059377 -0.000000 -0.000000
LeftFoot -12.100158 10.134899 -23.856908
LeftToeBase 8.536534 -0.000000 -0.000000
RightUpLeg 4.279835 -14.115270 -3.341694
RightLeg -3.895045 -0.000000 0.000000
RightFoot -17.813471 -20.923096 12.144334
RightToeBase 5.313355 -0.000000 -0.000000
1178
root -1.448241 31.933171 -5.982506 7.940483 25.169074 5.326930
Spine -7.580221 -5.347252 -4.178742
Head 3.580159 -21.441385 -7.059037
LeftShoulder -12.409322 15.028496 6.628793
LeftArm 24.560403 41.108221 -72.148023
LeftForeArm -1.595711 -0.000000 13.216511
LeftHand -11.496369 0.000000 -6.769386
LeftHandThumb1 -26.253704 0.000000 33.147579
RightShoulder -12.744304 29.708900 -49.874977
RightArm 58.775047 59.910173 66.334561
RightForeArm 25.688759 -0.000000 105.757951
RightHand -3.112210 -0.000000 9.794562
RightHandThumb1 -24.326973 -0.000000 -32.862282
LeftUpLeg -3.465911 -11.155214 -0.463699
LeftLeg 0.051483 -0.000000 -0.000000
LeftFoot -12.143688 10.182756 -23.863425
LeftToeBase 8.531743 -0.000000 -0.000000
RightUpLeg 4.259748 -14.051694 -3.354004
RightLeg -3.891742 -0.000000 0.000000
RightFoot -17.815243 -20.875658 12.091250
RightToeBase 5.337073 -0.000000 -0.000000
1179
root -1.445367 31.931278 -5.980899 7.929529 25.012613 5.319468
Spine -7.585987 -5.410840 -4.176130
Head 3.566843 -21.881053 -6.995927
LeftShoulder -12.459493 15.016586 6.635154
LeftArm 24.504721 41.152661 -72.168724
LeftForeArm -1.627118 0.000000 13.153079
LeftHand -11.505986 -0.000000 -6.845436
LeftHandThumb1 -26.253704 0.000000 33.147579
RightShoulder -12.789159 29.641419 -49.860710
RightArm 58.202402 59.749397 65.502154
RightForeArm 25.611159 -0.000000 105.919892
RightHand -3.257149 -0.000000 9.807670
RightHandThumb1 -24.326973 -0.000000 -32.862282
LeftUpLeg -3.440804 -11.083467 -0.482587
LeftLeg 0.061025 -0.000000 -0.000000
LeftFoot -12.215901 10.240096 -23.870744
LeftToeBase 8.569753 -0.000000 -0.000000
RightUpLeg 4.250822 -13.987954 -3.372013
RightLeg -3.904362 -0.000000 0.000000
RightFoot -17.807076 -20.795993 12.085033
RightToeBase 5.357260 -0.000000 -0.000000
1180
root -1.443620 31.928924 -5.978232 7.914737 24.846677 5.308633
Spine -7.595657 -5.461084 -4.180205
Head 3.541408 -22.444570 -6.903572
LeftShoulder -12.495418 15.049135 6.642955
LeftArm 24.489667 41.162930 -72.167286
LeftForeArm -1.645868 -0.000000 13.089840
LeftHand -11.395725 0.000000 -6.765823
LeftHandThumb1 -26.253704 0.000000 33.147579
RightShoulder -12.818861 29.560114 -49.841732
RightArm 57.749825 59.583905 64.823912
RightForeArm 25.403704 -0.000000 106.073918
RightHand -3.278073 0.000000 9.848671
RightHandThumb1 -24.326973 -0.000000 -32.862282
LeftUpLeg -3.425166 -10.956813 -0.503880
LeftLeg 0.103481 -0.000000 -0.000000
LeftFoot -12.290580 10.266088 -23.869979
LeftToeBase 8.529060 -0.000000 -0.000000
RightUpLeg 4.243023 -13.927972 -3.386614
RightLeg -3.915332 -0.000000 0.000000
RightFoot -17.786807 -20.717872 12.028708
RightToeBase 5.337346 -0.000000 -0.000000
1181
root -1.438678 31.926988 -5.972060 7.879481 24.663290 5.294704
Spine -7.609142 -5.473998 -4.182999
Head 3.575338 -22.875876 -6.818903
LeftShoulder -12.502302 15.087806 6.657989
LeftArm 24.475364 41.187749 -72.167206
LeftForeArm -1.643240 -0.000000 13.029503
LeftHand -11.403438 -0.000000 -6.792089
LeftHandThumb1 -26.253704 0.000000 33.147579
RightShoulder -12.829975 29.417647 -49.811158
RightArm 57.514177 59.432224 64.394432
RightForeArm 25.132551 0.000000 106.213509
RightHand -3.276656 -0.000000 9.909445
RightHandThumb1 -24.326973 -0.000000 -32.862282
LeftUpLeg -3.359439 -10.888457 -0.524307
LeftLeg 0.103660 -0.000000 -0.000000
LeftFoot -12.384029 10.337867 -23.892075
LeftToeBase 8.565006 -0.000000 -0.000000
RightUpLeg 4.266735 -13.871826 -3.411871
RightLeg -3.935894 -0.000000 0.000000
RightFoot -17.759422 -20.593668 12.002288
RightToeBase 5.346704 -0.000000 -0.000000
